<?xml version="1.0" standalone="no"?>
<!DOCTYPE svg PUBLIC "-//W3C//DTD SVG 20010904//EN"
 "http://www.w3.org/TR/2001/REC-SVG-20010904/DTD/svg10.dtd">
<svg version="1.0" xmlns="http://www.w3.org/2000/svg"
 width="1331.000000pt" height="1331.000000pt" viewBox="0 0 1331.000000 1331.000000"
 preserveAspectRatio="xMidYMid meet">
<metadata>
Created by potrace 1.16, written by Peter Selinger 2001-2019
</metadata>
<g transform="translate(0.000000,1331.000000) scale(0.100000,-0.100000)"
fill="#ffffff" stroke="none">
<path d="M6505 13083 c-630 -15 -1269 -130 -1875 -338 -1958 -671 -3482 -2294
-4051 -4312 -153 -544 -226 -1040 -236 -1608 -14 -790 84 -1456 319 -2175 556
-1699 1802 -3098 3408 -3828 864 -393 1765 -578 2715 -559 659 14 1204 106
1825 309 1382 452 2585 1394 3374 2641 546 864 866 1805 972 2857 21 212 30
788 15 1010 -95 1423 -628 2736 -1546 3805 -998 1163 -2388 1928 -3890 2139
-246 35 -753 71 -885 64 -19 -1 -84 -3 -145 -5z m475 -673 c984 -61 1897 -360
2715 -888 1154 -746 2015 -1909 2395 -3237 208 -729 273 -1471 194 -2220 -152
-1448 -833 -2775 -1912 -3728 -916 -808 -2030 -1286 -3242 -1392 -204 -17
-679 -20 -881 -5 -1135 87 -2188 502 -3084 1215 -472 376 -928 885 -1255 1400
-155 243 -338 593 -449 855 -378 895 -526 1901 -425 2880 69 672 273 1368 580
1982 373 745 902 1397 1559 1924 807 647 1817 1069 2836 1184 339 38 667 48
969 30z"/>
<path d="M5268 11487 c-183 -113 -276 -177 -273 -185 3 -8 305 -494 672 -1080
367 -587 686 -1102 710 -1144 74 -131 168 -184 312 -176 110 7 199 59 253 146
12 20 332 533 710 1139 379 606 690 1108 693 1115 3 8 -94 74 -269 183 -150
93 -277 170 -282 172 -5 1 -32 -34 -60 -80 -28 -45 -132 -210 -230 -367 -98
-157 -221 -355 -274 -440 -53 -85 -176 -283 -274 -440 -98 -157 -202 -322
-230 -367 -28 -46 -53 -83 -56 -83 -3 1 -255 401 -560 890 -305 489 -557 890
-560 890 -3 0 -130 -78 -282 -173z"/>
<path d="M3845 10195 c-247 -33 -555 -149 -673 -253 -145 -126 -316 -351 -401
-524 -42 -86 -99 -277 -129 -433 -12 -65 -17 -139 -16 -265 0 -158 3 -186 28
-285 27 -106 92 -301 115 -342 9 -18 2 -25 -72 -71 -91 -55 -229 -155 -292
-210 -150 -132 -303 -376 -405 -647 -49 -131 -66 -214 -82 -397 -13 -154 -2
-326 30 -475 32 -142 172 -353 353 -528 81 -78 121 -109 179 -137 147 -71 321
-108 507 -108 l113 0 1728 632 c950 347 1728 632 1730 634 2 1 -443 694 -988
1540 -897 1394 -997 1545 -1060 1604 -109 104 -271 192 -449 244 -113 34 -118
34 -216 21z m119 -695 c33 -16 68 -36 76 -42 9 -7 352 -535 763 -1173 l747
-1160 -32 -11 c-18 -6 -595 -218 -1283 -470 -1362 -499 -1280 -473 -1401 -439
-41 12 -63 27 -105 73 -82 89 -131 165 -140 219 -11 68 -10 216 1 298 17 118
100 310 186 432 82 115 177 180 581 397 l292 158 -19 41 c-10 23 -75 164 -144
312 -70 149 -141 315 -159 370 -30 92 -32 110 -32 235 1 120 4 148 32 253 34
123 70 196 147 296 76 98 133 148 194 172 53 20 207 67 226 68 4 1 36 -12 70
-29z"/>
<path d="M9287 10170 c-199 -58 -356 -143 -475 -257 -63 -61 -170 -223 -1057
-1601 -543 -844 -985 -1535 -983 -1536 1 -2 786 -290 1744 -640 l1740 -637
136 10 c312 24 467 83 632 241 185 178 329 400 361 555 37 181 37 468 0 659
-30 158 -152 435 -266 606 -112 167 -264 306 -480 438 l-87 53 34 86 c109 279
144 517 109 758 -59 413 -196 689 -487 976 -106 104 -111 108 -226 157 -196
83 -372 134 -525 150 -69 7 -87 5 -170 -18z m308 -697 c102 -33 114 -40 173
-97 35 -33 93 -105 129 -158 52 -78 70 -117 93 -195 64 -223 66 -368 7 -543
-19 -58 -96 -235 -171 -394 -75 -160 -136 -295 -136 -301 0 -6 136 -87 303
-179 340 -188 459 -267 533 -355 55 -66 137 -216 177 -326 43 -116 58 -284 37
-424 -10 -71 -46 -132 -135 -229 -57 -63 -87 -78 -181 -91 l-66 -10 -1256 461
c-692 253 -1272 466 -1290 472 l-33 12 741 1149 c407 633 750 1160 761 1172
11 13 49 36 82 53 71 34 71 34 232 -17z"/>
<path d="M6550 6104 c-81 -6 -292 -33 -390 -50 -569 -102 -1152 -377 -1607
-761 -112 -93 -294 -274 -304 -301 -15 -38 -11 -170 6 -202 18 -35 247 -265
290 -291 17 -11 49 -19 75 -19 58 0 95 24 230 154 368 353 856 604 1380 710
510 104 1061 60 1547 -123 149 -55 321 -138 449 -214 220 -132 346 -231 584
-456 25 -24 59 -49 77 -57 34 -15 96 -17 125 -6 25 10 277 259 299 296 23 38
26 160 5 209 -15 35 -175 196 -299 300 -209 176 -478 351 -722 468 -376 181
-688 272 -1130 330 -75 10 -523 19 -615 13z"/>
<path d="M6571 5060 c-477 -47 -921 -225 -1289 -519 -144 -114 -272 -240 -293
-286 -22 -48 -25 -142 -5 -188 16 -39 287 -314 323 -328 62 -23 142 4 189 67
15 20 70 71 122 114 267 224 543 353 874 411 150 26 437 26 590 -1 355 -60
708 -240 952 -485 88 -88 129 -115 174 -115 53 0 82 22 230 168 146 145 162
170 162 250 0 87 -18 121 -114 218 -318 317 -743 551 -1171 643 -230 50 -537
71 -744 51z"/>
<path d="M6630 4014 c-203 -25 -426 -105 -587 -210 -114 -75 -282 -225 -310
-278 -17 -33 -21 -182 -5 -212 15 -28 286 -297 308 -305 11 -4 42 -8 70 -8 56
-1 77 11 159 94 231 234 597 280 897 112 35 -20 103 -72 151 -117 71 -67 94
-83 126 -87 83 -11 98 -2 254 152 154 153 167 173 167 260 0 85 -16 115 -113
210 -188 184 -441 320 -691 371 -70 14 -358 26 -426 18z"/>
<path d="M6657 2923 c-143 -29 -257 -93 -359 -201 -145 -154 -204 -345 -173
-562 21 -154 120 -319 249 -417 255 -192 565 -191 826 4 69 52 137 139 185
238 52 108 65 166 65 288 0 113 -18 185 -72 297 -34 69 -59 101 -128 170 -91
91 -178 142 -292 174 -73 21 -222 25 -301 9z"/>
</g>
</svg>
